<mxfile host="app.diagrams.net" modified="2021-02-14T08:13:42.981Z" agent="5.0 (Windows NT 10.0; Win64; x64) AppleWebKit/537.36 (KHTML, like Gecko) Chrome/88.0.4324.150 Safari/537.36" etag="BJfhrs1-1wpvIj7Yd_6t" version="14.3.1" type="github">
  <diagram name="Page-1" id="e3a06f82-3646-2815-327d-82caf3d4e204">
    <mxGraphModel dx="1289" dy="722" grid="1" gridSize="10" guides="1" tooltips="1" connect="1" arrows="1" fold="1" page="1" pageScale="1.5" pageWidth="1169" pageHeight="826" background="none" math="0" shadow="0">
      <root>
        <mxCell id="0" style=";html=1;" />
        <mxCell id="1" style=";html=1;" parent="0" />
        <mxCell id="6a7d8f32e03d9370-60" value="&amp;nbsp;" style="whiteSpace=wrap;html=1;fillColor=#dae8fc;fontSize=14;strokeColor=#6c8ebf;verticalAlign=top;" parent="1" vertex="1">
          <mxGeometry x="540" y="130" width="1060" height="1008" as="geometry" />
        </mxCell>
        <mxCell id="6a7d8f32e03d9370-59" value="&lt;span&gt;&lt;font style=&quot;font-size: 14px&quot;&gt;Red-Team-Net (Virtual Subnet)&lt;br&gt;10.0.0.0/24 (West US)&lt;/font&gt;&lt;br&gt;&lt;/span&gt;" style="whiteSpace=wrap;html=1;fillColor=#EDEDED;fontSize=14;strokeColor=none;verticalAlign=top;" parent="1" vertex="1">
          <mxGeometry x="554.5" y="207" width="691" height="748" as="geometry" />
        </mxCell>
        <mxCell id="6a7d8f32e03d9370-57" value="&lt;br&gt;" style="whiteSpace=wrap;html=1;fillColor=#d5e8d4;fontSize=14;strokeColor=#82b366;verticalAlign=top;" parent="1" vertex="1">
          <mxGeometry x="179" y="330" width="308" height="398" as="geometry" />
        </mxCell>
        <mxCell id="6a7d8f32e03d9370-2" value="CLIENT (User)" style="verticalLabelPosition=bottom;aspect=fixed;html=1;verticalAlign=top;strokeColor=none;shape=mxgraph.citrix.laptop_2;fillColor=#66B2FF;gradientColor=#0066CC;fontSize=14;" parent="1" vertex="1">
          <mxGeometry x="249.9999999999999" y="573" width="116" height="86.5" as="geometry" />
        </mxCell>
        <mxCell id="6a7d8f32e03d9370-34" style="edgeStyle=none;rounded=0;html=1;startSize=10;endSize=10;jettySize=auto;orthogonalLoop=1;fontSize=14;endArrow=none;endFill=0;strokeWidth=2;entryX=-0.025;entryY=0.442;entryDx=0;entryDy=0;entryPerimeter=0;" parent="1" target="6a7d8f32e03d9370-19" edge="1">
          <mxGeometry relative="1" as="geometry">
            <mxPoint x="417" y="441.55291115311917" as="sourcePoint" />
            <mxPoint x="600" y="438" as="targetPoint" />
          </mxGeometry>
        </mxCell>
        <mxCell id="6a7d8f32e03d9370-52" style="edgeStyle=none;rounded=0;html=1;startSize=10;endSize=10;jettySize=auto;orthogonalLoop=1;fontSize=14;endArrow=none;endFill=0;strokeWidth=2;entryX=0.432;entryY=0.873;entryDx=0;entryDy=0;entryPerimeter=0;exitX=0.548;exitY=0.164;exitDx=0;exitDy=0;exitPerimeter=0;" parent="1" source="3YF9bxovwuP6nqpEpqcG-20" target="6a7d8f32e03d9370-19" edge="1">
          <mxGeometry relative="1" as="geometry">
            <mxPoint x="973" y="599.5448717948718" as="sourcePoint" />
          </mxGeometry>
        </mxCell>
        <mxCell id="6a7d8f32e03d9370-46" style="edgeStyle=none;rounded=0;html=1;startSize=10;endSize=10;jettySize=auto;orthogonalLoop=1;fontSize=14;endArrow=none;endFill=0;strokeWidth=2;exitX=0.55;exitY=0.95;exitDx=0;exitDy=0;exitPerimeter=0;entryX=0.607;entryY=0.092;entryDx=0;entryDy=0;entryPerimeter=0;" parent="1" source="3YF9bxovwuP6nqpEpqcG-1" target="6a7d8f32e03d9370-2" edge="1">
          <mxGeometry relative="1" as="geometry">
            <Array as="points" />
          </mxGeometry>
        </mxCell>
        <mxCell id="6a7d8f32e03d9370-19" value="" style="verticalLabelPosition=bottom;aspect=fixed;html=1;verticalAlign=top;strokeColor=none;shape=mxgraph.citrix.firewall;fillColor=#66B2FF;gradientColor=#0066CC;fontSize=14;" parent="1" vertex="1">
          <mxGeometry x="640" y="405" width="75" height="93" as="geometry" />
        </mxCell>
        <mxCell id="6a7d8f32e03d9370-23" value="" style="verticalLabelPosition=bottom;aspect=fixed;html=1;verticalAlign=top;strokeColor=none;shape=mxgraph.citrix.home_office;fillColor=#66B2FF;gradientColor=#0066CC;fontSize=14;" parent="1" vertex="1">
          <mxGeometry x="286" y="899.5" width="80" height="55.5" as="geometry" />
        </mxCell>
        <mxCell id="6a7d8f32e03d9370-27" value="Client" style="verticalLabelPosition=top;aspect=fixed;html=1;verticalAlign=bottom;strokeColor=none;shape=mxgraph.citrix.thin_client;fillColor=#66B2FF;gradientColor=#0066CC;fontSize=14;labelPosition=center;align=center;" parent="1" vertex="1">
          <mxGeometry x="1437" y="498" width="71" height="71" as="geometry" />
        </mxCell>
        <mxCell id="6a7d8f32e03d9370-30" value="Azure&lt;br&gt;" style="verticalLabelPosition=bottom;aspect=fixed;html=1;verticalAlign=top;strokeColor=none;shape=mxgraph.citrix.web_service;fillColor=#66B2FF;gradientColor=#0066CC;fontSize=14;" parent="1" vertex="1">
          <mxGeometry x="1500" y="147" width="76.65" height="73" as="geometry" />
        </mxCell>
        <mxCell id="6a7d8f32e03d9370-31" value="" style="verticalLabelPosition=bottom;aspect=fixed;html=1;verticalAlign=top;strokeColor=none;shape=mxgraph.citrix.site;fillColor=#66B2FF;gradientColor=#0066CC;fontSize=14;" parent="1" vertex="1">
          <mxGeometry x="1442.01" y="980" width="107" height="101" as="geometry" />
        </mxCell>
        <mxCell id="6a7d8f32e03d9370-62" value="Red-Team Resource Group (West US)" style="text;strokeColor=none;fillColor=none;html=1;fontSize=24;fontStyle=1;verticalAlign=middle;align=center;" parent="1" vertex="1">
          <mxGeometry x="610" y="80" width="500" height="40" as="geometry" />
        </mxCell>
        <mxCell id="3YF9bxovwuP6nqpEpqcG-1" value="" style="ellipse;shape=cloud;whiteSpace=wrap;html=1;fillColor=#99FFFF;" vertex="1" parent="1">
          <mxGeometry x="220" y="380" width="220" height="120" as="geometry" />
        </mxCell>
        <mxCell id="3YF9bxovwuP6nqpEpqcG-8" value="SSH (Port 22)" style="text;html=1;resizable=0;autosize=1;align=center;verticalAlign=middle;points=[];fillColor=none;strokeColor=none;rounded=0;" vertex="1" parent="1">
          <mxGeometry x="640" y="549" width="90" height="20" as="geometry" />
        </mxCell>
        <mxCell id="3YF9bxovwuP6nqpEpqcG-9" value="SSH" style="text;html=1;resizable=0;autosize=1;align=center;verticalAlign=middle;points=[];fillColor=none;strokeColor=none;rounded=0;" vertex="1" parent="1">
          <mxGeometry x="340" y="523.5" width="40" height="20" as="geometry" />
        </mxCell>
        <mxCell id="3YF9bxovwuP6nqpEpqcG-10" value="HTTP" style="text;html=1;resizable=0;autosize=1;align=center;verticalAlign=middle;points=[];fillColor=none;strokeColor=none;rounded=0;" vertex="1" parent="1">
          <mxGeometry x="343.5" y="543.5" width="50" height="20" as="geometry" />
        </mxCell>
        <mxCell id="6a7d8f32e03d9370-61" value="ELK-vNet (Virtual Subnet)&lt;br&gt;10.1.0.0/24 (East US 2)" style="whiteSpace=wrap;html=1;fillColor=#fff2cc;fontSize=14;strokeColor=#d6b656;verticalAlign=top;" parent="1" vertex="1">
          <mxGeometry x="1273" y="330" width="307" height="360" as="geometry" />
        </mxCell>
        <mxCell id="6a7d8f32e03d9370-17" value="" style="verticalLabelPosition=bottom;aspect=fixed;html=1;verticalAlign=top;strokeColor=none;shape=mxgraph.citrix.firewall;fillColor=#66B2FF;gradientColor=#0066CC;fontSize=14;" parent="1" vertex="1">
          <mxGeometry x="1300" y="445" width="75" height="93" as="geometry" />
        </mxCell>
        <mxCell id="6a7d8f32e03d9370-54" style="edgeStyle=none;rounded=0;html=1;startSize=10;endSize=10;jettySize=auto;orthogonalLoop=1;fontSize=14;endArrow=none;endFill=0;strokeWidth=2;exitX=1.013;exitY=0.555;exitDx=0;exitDy=0;exitPerimeter=0;entryX=0.015;entryY=0.519;entryDx=0;entryDy=0;entryPerimeter=0;" parent="1" source="6a7d8f32e03d9370-17" target="6a7d8f32e03d9370-16" edge="1">
          <mxGeometry relative="1" as="geometry">
            <mxPoint x="1409" y="473.47391430016614" as="targetPoint" />
            <Array as="points" />
          </mxGeometry>
        </mxCell>
        <mxCell id="3YF9bxovwuP6nqpEpqcG-20" value="Jump-Box-Provisioner&lt;br&gt;(Ansible: elastic_blackburn)&lt;br&gt;104.45.223.53&lt;br&gt;10.0.0.4&lt;br&gt;(1GiB)" style="verticalLabelPosition=bottom;aspect=fixed;html=1;verticalAlign=top;strokeColor=none;shape=mxgraph.citrix.chassis;fillColor=#66B2FF;gradientColor=#0066CC;fontSize=14;" vertex="1" parent="1">
          <mxGeometry x="635.99" y="610" width="77.46" height="100" as="geometry" />
        </mxCell>
        <mxCell id="3YF9bxovwuP6nqpEpqcG-36" value="Purple-Team-Net (Security Group) &lt;br&gt;(West US)" style="text;html=1;resizable=0;autosize=1;align=center;verticalAlign=middle;points=[];fillColor=none;strokeColor=none;rounded=0;" vertex="1" parent="1">
          <mxGeometry x="574.72" y="369.5" width="200" height="30" as="geometry" />
        </mxCell>
        <mxCell id="3YF9bxovwuP6nqpEpqcG-37" value="&lt;font style=&quot;font-size: 14px&quot;&gt;Red-Team-Net (Virtual Network)&lt;br&gt;10.0.0.0/16 (West US)&lt;/font&gt;" style="text;html=1;resizable=0;autosize=1;align=center;verticalAlign=middle;points=[];fillColor=none;strokeColor=none;rounded=0;" vertex="1" parent="1">
          <mxGeometry x="797.99" y="177" width="210" height="30" as="geometry" />
        </mxCell>
        <mxCell id="3YF9bxovwuP6nqpEpqcG-38" value="&lt;font style=&quot;font-size: 14px&quot;&gt;ELK-vNet (Virtual Network)&lt;br&gt;10.1.0.0/16 (East US 2)&lt;/font&gt;" style="text;html=1;resizable=0;autosize=1;align=center;verticalAlign=middle;points=[];fillColor=none;strokeColor=none;rounded=0;" vertex="1" parent="1">
          <mxGeometry x="1337" y="300" width="180" height="30" as="geometry" />
        </mxCell>
        <mxCell id="6a7d8f32e03d9370-26" value="" style="verticalLabelPosition=bottom;aspect=fixed;html=1;verticalAlign=top;strokeColor=#82b366;shape=mxgraph.citrix.switch;fillColor=#d5e8d4;fontSize=14;" parent="1" vertex="1">
          <mxGeometry x="877" y="423" width="166.27" height="75" as="geometry" />
        </mxCell>
        <mxCell id="6a7d8f32e03d9370-53" style="edgeStyle=none;rounded=0;html=1;startSize=10;endSize=10;jettySize=auto;orthogonalLoop=1;fontSize=14;endArrow=none;endFill=0;strokeWidth=2;exitX=1.027;exitY=0.59;exitDx=0;exitDy=0;exitPerimeter=0;entryX=0.006;entryY=0.441;entryDx=0;entryDy=0;entryPerimeter=0;" parent="1" source="6a7d8f32e03d9370-19" target="6a7d8f32e03d9370-26" edge="1">
          <mxGeometry relative="1" as="geometry" />
        </mxCell>
        <mxCell id="3YF9bxovwuP6nqpEpqcG-6" value="Red-Team-LB (Load Balancer)&lt;br&gt;(West US)&lt;br&gt;168.61.68.218" style="text;html=1;resizable=0;autosize=1;align=center;verticalAlign=middle;points=[];fillColor=none;strokeColor=none;rounded=0;" vertex="1" parent="1">
          <mxGeometry x="876.72" y="376" width="180" height="50" as="geometry" />
        </mxCell>
        <mxCell id="3YF9bxovwuP6nqpEpqcG-44" value="" style="rounded=0;whiteSpace=wrap;html=1;dashed=1;fillColor=#f5f5f5;strokeColor=#666666;gradientColor=#b3b3b3;" vertex="1" parent="1">
          <mxGeometry x="790" y="580" width="360" height="250" as="geometry" />
        </mxCell>
        <mxCell id="3YF9bxovwuP6nqpEpqcG-23" value="Web-1&lt;br&gt;10.0.0.5&lt;br&gt;(2GiB)" style="verticalLabelPosition=bottom;aspect=fixed;html=1;verticalAlign=top;strokeColor=none;shape=mxgraph.citrix.chassis;fillColor=#66B2FF;gradientColor=#0066CC;fontSize=14;" vertex="1" parent="1">
          <mxGeometry x="810" y="611" width="79.01" height="102" as="geometry" />
        </mxCell>
        <mxCell id="3YF9bxovwuP6nqpEpqcG-53" value="" style="edgeStyle=orthogonalEdgeStyle;rounded=0;orthogonalLoop=1;jettySize=auto;html=1;startArrow=none;startFill=0;endArrow=none;endFill=0;" edge="1" parent="1" source="3YF9bxovwuP6nqpEpqcG-22">
          <mxGeometry relative="1" as="geometry">
            <mxPoint x="1019" y="590" as="targetPoint" />
          </mxGeometry>
        </mxCell>
        <mxCell id="3YF9bxovwuP6nqpEpqcG-22" value="Web-2&lt;br&gt;10.0.0.6&lt;br&gt;(2GiB)" style="verticalLabelPosition=bottom;aspect=fixed;html=1;verticalAlign=top;strokeColor=none;shape=mxgraph.citrix.chassis;fillColor=#66B2FF;gradientColor=#0066CC;fontSize=14;" vertex="1" parent="1">
          <mxGeometry x="921.41" y="610" width="77.46" height="100" as="geometry" />
        </mxCell>
        <mxCell id="3YF9bxovwuP6nqpEpqcG-54" style="edgeStyle=orthogonalEdgeStyle;rounded=0;orthogonalLoop=1;jettySize=auto;html=1;startArrow=none;startFill=0;endArrow=none;endFill=0;" edge="1" parent="1" source="3YF9bxovwuP6nqpEpqcG-21">
          <mxGeometry relative="1" as="geometry">
            <mxPoint x="1130" y="590" as="targetPoint" />
            <Array as="points">
              <mxPoint x="1130" y="660" />
              <mxPoint x="1130" y="590" />
            </Array>
          </mxGeometry>
        </mxCell>
        <mxCell id="3YF9bxovwuP6nqpEpqcG-21" value="Web-3&lt;br&gt;10.0.0.8&lt;br&gt;(2GiB)" style="verticalLabelPosition=bottom;aspect=fixed;html=1;verticalAlign=top;strokeColor=none;shape=mxgraph.citrix.chassis;fillColor=#66B2FF;gradientColor=#0066CC;fontSize=14;" vertex="1" parent="1">
          <mxGeometry x="1030.99" y="609" width="79.01" height="102" as="geometry" />
        </mxCell>
        <mxCell id="3YF9bxovwuP6nqpEpqcG-19" value="RedTeamPool (Backend Pool)&lt;br&gt;RedTeamProbe TCP Port 80 (Health Probe)" style="text;html=1;resizable=0;autosize=1;align=center;verticalAlign=middle;points=[];fillColor=none;strokeColor=none;rounded=0;" vertex="1" parent="1">
          <mxGeometry x="829.72" y="795" width="250" height="30" as="geometry" />
        </mxCell>
        <mxCell id="6a7d8f32e03d9370-51" style="edgeStyle=none;rounded=0;html=1;startSize=10;endSize=10;jettySize=auto;orthogonalLoop=1;fontSize=14;endArrow=none;endFill=0;strokeWidth=2;exitX=0.588;exitY=0.054;exitDx=0;exitDy=0;exitPerimeter=0;entryX=0.474;entryY=0.994;entryDx=0;entryDy=0;entryPerimeter=0;" parent="1" source="3YF9bxovwuP6nqpEpqcG-22" target="6a7d8f32e03d9370-26" edge="1">
          <mxGeometry relative="1" as="geometry">
            <mxPoint x="1000.5" y="587" as="sourcePoint" />
            <mxPoint x="1000.5" y="369.5" as="targetPoint" />
          </mxGeometry>
        </mxCell>
        <mxCell id="6a7d8f32e03d9370-55" style="edgeStyle=none;rounded=0;html=1;startSize=10;endSize=10;jettySize=auto;orthogonalLoop=1;fontSize=14;endArrow=none;endFill=0;strokeWidth=2;exitX=0.316;exitY=0.903;exitDx=0;exitDy=0;exitPerimeter=0;entryX=0.777;entryY=0.088;entryDx=0;entryDy=0;entryPerimeter=0;" parent="1" source="6a7d8f32e03d9370-26" target="3YF9bxovwuP6nqpEpqcG-23" edge="1">
          <mxGeometry relative="1" as="geometry">
            <Array as="points" />
          </mxGeometry>
        </mxCell>
        <mxCell id="6a7d8f32e03d9370-44" style="edgeStyle=none;rounded=0;html=1;startSize=10;endSize=10;jettySize=auto;orthogonalLoop=1;fontSize=14;endArrow=none;endFill=0;strokeWidth=2;exitX=0.668;exitY=0.864;exitDx=0;exitDy=0;exitPerimeter=0;" parent="1" edge="1">
          <mxGeometry relative="1" as="geometry">
            <mxPoint x="988.0683600000002" y="490.79999999999995" as="sourcePoint" />
            <mxPoint x="1046.0829289198605" y="612" as="targetPoint" />
            <Array as="points" />
          </mxGeometry>
        </mxCell>
        <mxCell id="6a7d8f32e03d9370-16" value="VM-4&lt;br&gt;(ELK)&lt;br&gt;40.75.3.104&lt;br&gt;10.1.0.4&lt;br&gt;(4GiB)" style="verticalLabelPosition=bottom;aspect=fixed;html=1;verticalAlign=top;strokeColor=none;shape=mxgraph.citrix.chassis;fillColor=#66B2FF;gradientColor=#0066CC;fontSize=14;" parent="1" vertex="1">
          <mxGeometry x="1470" y="440.5" width="79.01" height="102" as="geometry" />
        </mxCell>
        <mxCell id="3YF9bxovwuP6nqpEpqcG-48" value="VM-4-nsg (Security Group)&lt;br&gt;(East US 2)" style="text;html=1;resizable=0;autosize=1;align=center;verticalAlign=middle;points=[];fillColor=none;strokeColor=none;rounded=0;dashed=1;" vertex="1" parent="1">
          <mxGeometry x="1273" y="415" width="160" height="30" as="geometry" />
        </mxCell>
        <mxCell id="6a7d8f32e03d9370-56" style="edgeStyle=none;rounded=0;html=1;startSize=10;endSize=10;jettySize=auto;orthogonalLoop=1;fontSize=14;endArrow=none;endFill=0;strokeWidth=2;exitX=1.002;exitY=0.578;exitDx=0;exitDy=0;exitPerimeter=0;entryX=0.187;entryY=0.911;entryDx=0;entryDy=0;entryPerimeter=0;" parent="1" source="3YF9bxovwuP6nqpEpqcG-20" target="6a7d8f32e03d9370-16" edge="1">
          <mxGeometry relative="1" as="geometry">
            <mxPoint x="720" y="670" as="sourcePoint" />
            <mxPoint x="1409" y="844.499090578392" as="targetPoint" />
            <Array as="points">
              <mxPoint x="760" y="670" />
              <mxPoint x="760" y="780" />
              <mxPoint x="1050" y="780" />
              <mxPoint x="1347" y="780" />
            </Array>
          </mxGeometry>
        </mxCell>
        <mxCell id="6a7d8f32e03d9370-50" style="edgeStyle=none;rounded=0;html=1;jettySize=auto;orthogonalLoop=1;fontSize=14;endArrow=none;endFill=0;strokeWidth=2;exitX=0.116;exitY=0.894;exitDx=0;exitDy=0;exitPerimeter=0;startArrow=none;startFill=0;" parent="1" source="3YF9bxovwuP6nqpEpqcG-23" edge="1">
          <mxGeometry relative="1" as="geometry">
            <mxPoint x="819" y="704" as="sourcePoint" />
            <mxPoint x="819" y="780" as="targetPoint" />
          </mxGeometry>
        </mxCell>
        <mxCell id="3YF9bxovwuP6nqpEpqcG-50" style="edgeStyle=none;rounded=0;html=1;startSize=10;endSize=10;jettySize=auto;orthogonalLoop=1;fontSize=14;endArrow=none;endFill=0;strokeWidth=2;entryX=0.126;entryY=0.882;entryDx=0;entryDy=0;entryPerimeter=0;" edge="1" parent="1" target="3YF9bxovwuP6nqpEpqcG-22">
          <mxGeometry relative="1" as="geometry">
            <mxPoint x="932" y="780" as="sourcePoint" />
            <mxPoint x="829" y="790" as="targetPoint" />
          </mxGeometry>
        </mxCell>
        <mxCell id="3YF9bxovwuP6nqpEpqcG-51" style="edgeStyle=none;rounded=0;html=1;startSize=10;endSize=10;jettySize=auto;orthogonalLoop=1;fontSize=14;endArrow=none;endFill=0;strokeWidth=2;entryX=0.126;entryY=0.882;entryDx=0;entryDy=0;entryPerimeter=0;" edge="1" parent="1">
          <mxGeometry relative="1" as="geometry">
            <mxPoint x="1040.55" y="781.8" as="sourcePoint" />
            <mxPoint x="1039.71996" y="700" as="targetPoint" />
          </mxGeometry>
        </mxCell>
        <mxCell id="3YF9bxovwuP6nqpEpqcG-55" style="edgeStyle=orthogonalEdgeStyle;rounded=0;orthogonalLoop=1;jettySize=auto;html=1;entryX=1.028;entryY=0.486;entryDx=0;entryDy=0;entryPerimeter=0;startArrow=block;startFill=1;endArrow=none;endFill=0;strokeColor=#000000;exitX=0.005;exitY=0.73;exitDx=0;exitDy=0;exitPerimeter=0;" edge="1" parent="1" source="6a7d8f32e03d9370-16" target="3YF9bxovwuP6nqpEpqcG-23">
          <mxGeometry relative="1" as="geometry">
            <Array as="points">
              <mxPoint x="1410" y="515" />
              <mxPoint x="1410" y="590" />
              <mxPoint x="910" y="590" />
              <mxPoint x="910" y="661" />
            </Array>
          </mxGeometry>
        </mxCell>
        <mxCell id="3YF9bxovwuP6nqpEpqcG-58" value="SSH (Port 22)" style="text;html=1;resizable=0;autosize=1;align=center;verticalAlign=middle;points=[];fillColor=none;strokeColor=none;rounded=0;" vertex="1" parent="1">
          <mxGeometry x="1252" y="760" width="90" height="20" as="geometry" />
        </mxCell>
        <mxCell id="3YF9bxovwuP6nqpEpqcG-59" style="edgeStyle=none;rounded=0;html=1;startSize=10;endSize=10;jettySize=auto;orthogonalLoop=1;fontSize=14;endArrow=none;endFill=0;strokeWidth=2;exitX=0.4;exitY=0.1;exitDx=0;exitDy=0;exitPerimeter=0;entryX=-0.011;entryY=0.529;entryDx=0;entryDy=0;entryPerimeter=0;" edge="1" parent="1" source="3YF9bxovwuP6nqpEpqcG-1" target="6a7d8f32e03d9370-17">
          <mxGeometry relative="1" as="geometry">
            <mxPoint x="723.60492" y="677.8" as="sourcePoint" />
            <mxPoint x="1494.7748700000002" y="543.422" as="targetPoint" />
            <Array as="points">
              <mxPoint x="710" y="350" />
              <mxPoint x="1180" y="290" />
              <mxPoint x="1180" y="494" />
            </Array>
          </mxGeometry>
        </mxCell>
        <mxCell id="3YF9bxovwuP6nqpEpqcG-60" value="TCP (Port 5601)" style="text;html=1;resizable=0;autosize=1;align=center;verticalAlign=middle;points=[];fillColor=none;strokeColor=none;rounded=0;" vertex="1" parent="1">
          <mxGeometry x="1184" y="475" width="100" height="20" as="geometry" />
        </mxCell>
        <mxCell id="3YF9bxovwuP6nqpEpqcG-62" value="SSH (Port 22)" style="text;html=1;resizable=0;autosize=1;align=center;verticalAlign=middle;points=[];fillColor=none;strokeColor=none;rounded=0;" vertex="1" parent="1">
          <mxGeometry x="481.5" y="422" width="90" height="20" as="geometry" />
        </mxCell>
        <mxCell id="3YF9bxovwuP6nqpEpqcG-64" value="INTERNET" style="text;html=1;resizable=0;autosize=1;align=center;verticalAlign=middle;points=[];fillColor=none;strokeColor=none;rounded=0;dashed=1;" vertex="1" parent="1">
          <mxGeometry x="283.5" y="426" width="80" height="20" as="geometry" />
        </mxCell>
        <mxCell id="3YF9bxovwuP6nqpEpqcG-65" value="Logs" style="text;html=1;resizable=0;autosize=1;align=center;verticalAlign=middle;points=[];fillColor=none;strokeColor=none;rounded=0;dashed=1;" vertex="1" parent="1">
          <mxGeometry x="1360" y="569" width="40" height="20" as="geometry" />
        </mxCell>
      </root>
    </mxGraphModel>
  </diagram>
</mxfile>
